<?xml version="1.0" standalone="no"?>
<!DOCTYPE svg PUBLIC "-//W3C//DTD SVG 20010904//EN"
 "http://www.w3.org/TR/2001/REC-SVG-20010904/DTD/svg10.dtd">
<svg version="1.0" xmlns="http://www.w3.org/2000/svg"
 width="512.000000pt" height="512.000000pt" viewBox="0 0 512.000000 512.000000"
 preserveAspectRatio="xMidYMid meet">
<metadata>
Created by potrace 1.14, written by Peter Selinger 2001-2017
</metadata>
<g transform="translate(0.000000,512.000000) scale(0.100000,-0.100000)"
fill="#000000" stroke="none">
<path d="M1410 4953 c-8 -3 -23 -15 -32 -27 -16 -19 -18 -68 -18 -633 l0 -613
-329 0 c-181 0 -337 -3 -346 -6 -8 -4 -22 -18 -30 -33 -11 -23 -53 -189 -71
-281 -2 -14 -13 -63 -24 -110 -11 -47 -33 -144 -50 -216 l-30 -132 0 -1176 c0
-1273 -2 -1225 52 -1240 13 -3 42 -6 66 -6 l42 0 0 -125 c0 -137 11 -178 52
-189 13 -3 855 -6 1871 -6 1973 0 1893 -2 1911 45 3 9 6 75 6 146 l0 129 55 0
c60 0 89 19 100 62 8 32 1 2398 -7 2424 -6 19 -21 83 -49 204 -7 30 -14 57
-14 60 -1 3 -7 30 -13 60 -7 30 -14 64 -16 75 -2 11 -9 38 -15 60 -5 22 -12
54 -15 70 -12 69 -38 151 -52 165 -12 13 -68 15 -354 18 l-340 3 -2 619 c-3
579 -4 620 -21 637 -17 17 -78 18 -1165 20 -631 1 -1154 -1 -1162 -4z"/>
</g>
</svg>
